<svg width="16" height="16" viewBox="0 0 16 16" fill="none" xmlns="http://www.w3.org/2000/svg">
<path d="M5.38188 3.24406C5.31388 3.09406 5.16388 3.00006 5.00088 3.00006C4.83888 3.00006 4.68888 3.09406 4.62088 3.24406L3.23788 6.23806L0.243878 7.61806C0.0938779 7.68606 -0.00012207 7.83606 -0.00012207 8.00106C-0.00012207 8.16706 0.0938779 8.31406 0.243878 8.38206L3.23788 9.76506L4.61788 12.7561C4.68588 12.9051 4.83588 13.0001 4.99888 13.0001C5.16088 13.0001 5.31088 12.9051 5.37888 12.7561L6.76188 9.76206L9.75588 8.37906C9.90488 8.31106 9.99988 8.16106 9.99988 7.99906C9.99988 7.83606 9.90488 7.68606 9.75588 7.61806L6.76488 6.23806L5.38188 3.24406Z" fill="#C2FFF4"/>
<path opacity="0.4" d="M10.1949 2.21906L11.6669 1.66706L12.2189 0.195061C12.2629 0.0780612 12.3749 6.10352e-05 12.4999 6.10352e-05C12.6249 6.10352e-05 12.7369 0.0780612 12.7809 0.195061L13.3329 1.66706L14.8049 2.21906C14.9219 2.26306 14.9999 2.37506 14.9999 2.50006C14.9999 2.62506 14.9219 2.73706 14.8049 2.78106L13.3329 3.33306L12.7809 4.80506C12.7369 4.92206 12.6249 5.00006 12.4999 5.00006C12.3749 5.00006 12.2629 4.92206 12.2189 4.80506L11.6669 3.33306L10.1949 2.78106C10.0779 2.73706 9.99988 2.62506 9.99988 2.50006C9.99988 2.37506 10.0779 2.26306 10.1949 2.21906Z" fill="#8DB2B2"/>
<path opacity="0.4" d="M11.9999 12.0001L10.2339 12.6631C10.0939 12.7161 9.99988 12.8501 9.99988 13.0001C9.99988 13.1501 10.0939 13.2841 10.2339 13.3371L11.9999 14.0001L12.6629 15.7661C12.7159 15.9061 12.8499 16.0001 12.9999 16.0001C13.1499 16.0001 13.2839 15.9061 13.3369 15.7661L13.9999 14.0001L15.7659 13.3371C15.9059 13.2841 15.9999 13.1501 15.9999 13.0001C15.9999 12.8501 15.9059 12.7161 15.7659 12.6631L13.9999 12.0001L13.3369 10.2341C13.2839 10.0941 13.1499 10.0001 12.9999 10.0001C12.8499 10.0001 12.7159 10.0941 12.6629 10.2341L11.9999 12.0001Z" fill="#8DB2B2"/>
</svg>
